<svg aria-hidden="true" style="position: absolute; width: 0; height: 0; overflow: hidden;" version="1.1" xmlns="http://www.w3.org/2000/svg" xmlns:xlink="http://www.w3.org/1999/xlink">
<defs>
<symbol id="close" viewBox="0 0 32 32">
<path d="M32.050 3.229l-3.229-3.229-12.796 12.796-12.796-12.796-3.229 3.229 12.796 12.796-12.796 12.796 3.229 3.229 12.796-12.796 12.796 12.796 3.229-3.229-12.796-12.796 12.796-12.796z"></path>
</symbol>
<symbol id="submit" viewBox="0 0 40 32">
<path fill="#f4f4fd" style="fill: var(--color1, #f4f4fd)" d="M33.802 1.037c0.659-0.638 1.559-1.030 2.55-1.030 2.008 0 3.639 1.612 3.67 3.613l0 0.003c0.001 0.028 0.001 0.062 0.001 0.095 0 0.965-0.368 1.845-0.972 2.505l0.003-0.003-19.587 24.629c-0.675 0.728-1.636 1.183-2.704 1.183-0.495 0-0.968-0.098-1.399-0.275l0.024 0.009c-0.477-0.197-0.884-0.474-1.224-0.816l-0-0-12.991-13.059c-0.725-0.678-1.176-1.639-1.176-2.706 0-0.502 0.1-0.98 0.281-1.416l-0.009 0.025c0.564-1.368 1.888-2.314 3.432-2.314 0.018 0 0.035 0 0.053 0l-0.003-0c1.038 0.019 1.968 0.468 2.623 1.174l0.002 0.002 10.282 10.334 17.049-21.844c0.032-0.039 0.065-0.074 0.1-0.108l-0.004-0z"></path>
</symbol>
</defs>
</svg>
